<svg width="128" height="128" viewBox="0 0 128 128" fill="none" xmlns="http://www.w3.org/2000/svg">
<g filter="url(#filter0_ii_36_166)">
<path fill-rule="evenodd" clip-rule="evenodd" d="M64.0001 10.6665C34.5441 10.6665 10.6668 34.5438 10.6668 63.9998C10.6622 71.8578 12.3942 79.6198 15.7388 86.7305L10.7788 110.928C10.6022 111.792 10.6426 112.686 10.8963 113.531C11.1501 114.375 11.6093 115.144 12.2328 115.767C12.8564 116.391 13.6248 116.85 14.4693 117.104C15.3139 117.357 16.2081 117.398 17.0721 117.221L41.2694 112.261C48.1708 115.514 55.8828 117.328 64.0001 117.328C93.4561 117.328 117.333 93.4558 117.333 63.9945C117.333 34.5438 93.4561 10.6611 64.0001 10.6611" fill="#C30003"/>
</g>
<g filter="url(#filter1_dd_36_166)">
<path d="M51.4613 51.3084C51.412 50.8375 51.2067 50.4707 50.8453 50.2079C50.4895 49.9452 50.0104 49.8138 49.4082 49.8138C48.9976 49.8138 48.6445 49.874 48.3488 49.9944C48.0587 50.1094 47.8369 50.2709 47.6836 50.4789C47.5303 50.687 47.4537 50.9224 47.4537 51.1852C47.4537 51.5794 47.6234 51.8914 47.9629 52.1214C48.3078 52.3459 48.7731 52.5238 49.3589 52.6552L50.4265 52.918C51.527 53.1698 52.3947 53.5804 53.0298 54.1498C53.6649 54.7137 53.9851 55.4638 53.9906 56.4C53.9906 57.1226 53.8072 57.7522 53.4404 58.2888C53.0736 58.8253 52.5453 59.2386 51.8554 59.5288C51.1656 59.819 50.3444 59.964 49.3918 59.964C48.4282 59.9695 47.5933 59.8244 46.8871 59.5288C46.1808 59.2332 45.6306 58.7952 45.2364 58.2148C44.8422 57.6345 44.6342 56.9255 44.6123 56.0879H47.0102C47.0486 56.6737 47.2785 57.1226 47.7001 57.4347C48.1271 57.7413 48.6801 57.8946 49.3589 57.8946C49.786 57.8946 50.161 57.8316 50.484 57.7057C50.807 57.5798 51.0561 57.4046 51.2313 57.1801C51.4065 56.9556 51.4941 56.6956 51.4941 56.4C51.4941 56.0167 51.3271 55.7129 50.9932 55.4884C50.6647 55.2585 50.1528 55.0586 49.4575 54.8889L48.1599 54.5768C46.0029 54.0458 44.9243 52.9672 44.9243 51.3412C44.9243 50.635 45.116 50.0109 45.4992 49.4688C45.8879 48.9214 46.4217 48.4971 47.1006 48.196C47.7849 47.8948 48.5596 47.7443 49.4246 47.7443C50.2896 47.7443 51.0534 47.8948 51.7158 48.196C52.3783 48.4971 52.8929 48.9186 53.2597 49.4606C53.6265 49.9972 53.8154 50.6131 53.8264 51.3084H51.4613ZM54.6476 59.7998L58.7701 47.9085H61.94L66.0461 59.7998H63.4018L62.5067 57.0569H58.2035L57.3083 59.7998H54.6476ZM61.8825 55.1353L60.3961 50.5857H60.314L58.8276 55.1353H61.8825ZM67.3929 47.9085H75.2274V49.9452H69.8566V52.8359H74.7182V54.8725H69.8566V59.7998H67.3929V47.9085ZM76.8534 47.9085H84.8357V49.9452H79.3171V52.8359H84.4251V54.8725H79.3171V57.7632H84.8521V59.7998H76.8534V47.9085ZM36.2112 70.0475C36.1126 69.396 35.8307 68.8813 35.3653 68.5036C34.9 68.1258 34.3169 67.9342 33.6161 67.9287C32.9975 67.9342 32.4555 68.0902 31.9901 68.3968C31.5302 68.7034 31.1744 69.1523 30.9225 69.7436C30.6707 70.3294 30.5448 71.0329 30.5448 71.8542C30.5448 72.6918 30.6707 73.4035 30.9225 73.9893C31.1798 74.5751 31.5357 75.0186 31.9901 75.3197C32.45 75.6208 32.9865 75.7741 33.5997 75.7796C34.2841 75.7741 34.8616 75.5935 35.3325 75.2376C35.8033 74.8763 36.0962 74.3781 36.2112 73.743L38.7077 73.7594C38.6146 74.5094 38.3491 75.2047 37.9111 75.8453C37.4731 76.4859 36.8819 77.0005 36.1373 77.3892C35.3927 77.7724 34.5359 77.964 33.5669 77.964C32.4993 77.964 31.5467 77.7232 30.709 77.2414C29.8768 76.7541 29.2226 76.0506 28.7463 75.1308C28.27 74.2056 28.0318 73.1134 28.0318 71.8542C28.0318 70.5895 28.27 69.4973 28.7463 68.5775C29.2281 67.6577 29.8878 66.957 30.7254 66.4752C31.5631 65.9879 32.5102 65.7443 33.5669 65.7443C34.4811 65.7443 35.3078 65.914 36.0469 66.2534C36.786 66.5929 37.3855 67.0856 37.8454 67.7316C38.3108 68.3777 38.5982 69.1496 38.7077 70.0475H36.2112ZM51.3216 71.8542C51.3216 73.1188 51.0808 74.2111 50.599 75.1308C50.1172 76.0506 49.4547 76.7541 48.6116 77.2414C47.774 77.7232 46.8268 77.964 45.7702 77.964C44.7081 77.964 43.7555 77.7232 42.9123 77.2414C42.0692 76.7541 41.4068 76.0506 40.925 75.1308C40.4432 74.2056 40.2023 73.1134 40.2023 71.8542C40.2023 70.5895 40.4432 69.4973 40.925 68.5775C41.4068 67.6577 42.0692 66.957 42.9123 66.4752C43.7555 65.9879 44.7081 65.7443 45.7702 65.7443C46.8268 65.7443 47.774 65.9879 48.6116 66.4752C49.4547 66.957 50.1172 67.6577 50.599 68.5775C51.0808 69.4973 51.3216 70.5895 51.3216 71.8542ZM42.7153 71.8542C42.7153 72.6863 42.8384 73.3981 43.0848 73.9893C43.3366 74.5751 43.6925 75.0186 44.1524 75.3197C44.6123 75.6208 45.1515 75.7741 45.7702 75.7796C46.3834 75.7741 46.9172 75.6208 47.3716 75.3197C47.8315 75.0131 48.1846 74.5669 48.431 73.9811C48.6828 73.3953 48.8087 72.6863 48.8087 71.8542C48.8087 71.022 48.6828 70.313 48.431 69.7272C48.1846 69.1359 47.8315 68.6897 47.3716 68.3886C46.9172 68.0875 46.3834 67.9342 45.7702 67.9287C45.1515 67.9342 44.6123 68.0875 44.1524 68.3886C43.6925 68.6897 43.3366 69.1359 43.0848 69.7272C42.8384 70.313 42.7153 71.022 42.7153 71.8542ZM56.1504 65.9085L59.4517 73.9729H59.5831L62.8844 65.9085H65.9394V77.7998H63.5414V70.0146H63.4429L60.3387 77.7505H58.6962L55.592 69.9818H55.4935V77.7998H53.0955V65.9085H56.1504ZM70.9981 65.9085L74.2994 73.9729H74.4308L77.7321 65.9085H80.7871V77.7998H78.3891V70.0146H78.2905L75.1863 77.7505H73.5439L70.4397 69.9818H70.3411V77.7998H67.9432V65.9085H70.9981ZM82.7908 65.9085H90.7731V67.9452H85.2545V70.8359H90.3625V72.8725H85.2545V75.7632H90.7895V77.7998H82.7908V65.9085ZM92.2349 65.9085H101.975V67.9452H98.3283V77.7998H95.8811V67.9452H92.2349V65.9085Z" fill="white"/>
</g>
<defs>
<filter id="filter0_ii_36_166" x="10.6667" y="8.10113" width="106.667" height="111.788" filterUnits="userSpaceOnUse" color-interpolation-filters="sRGB">
<feFlood flood-opacity="0" result="BackgroundImageFix"/>
<feBlend mode="normal" in="SourceGraphic" in2="BackgroundImageFix" result="shape"/>
<feColorMatrix in="SourceAlpha" type="matrix" values="0 0 0 0 0 0 0 0 0 0 0 0 0 0 0 0 0 0 127 0" result="hardAlpha"/>
<feOffset dy="2.56"/>
<feGaussianBlur stdDeviation="1.28"/>
<feComposite in2="hardAlpha" operator="arithmetic" k2="-1" k3="1"/>
<feColorMatrix type="matrix" values="0 0 0 0 0 0 0 0 0 0 0 0 0 0 0 0 0 0 0.05 0"/>
<feBlend mode="normal" in2="shape" result="effect1_innerShadow_36_166"/>
<feColorMatrix in="SourceAlpha" type="matrix" values="0 0 0 0 0 0 0 0 0 0 0 0 0 0 0 0 0 0 127 0" result="hardAlpha"/>
<feOffset dy="-5.12"/>
<feGaussianBlur stdDeviation="1.28"/>
<feComposite in2="hardAlpha" operator="arithmetic" k2="-1" k3="1"/>
<feColorMatrix type="matrix" values="0 0 0 0 0 0 0 0 0 0 0 0 0 0 0 0 0 0 0.04 0"/>
<feBlend mode="normal" in2="effect1_innerShadow_36_166" result="effect2_innerShadow_36_166"/>
</filter>
<filter id="filter1_dd_36_166" x="21.6319" y="36.2241" width="86.7426" height="53.2597" filterUnits="userSpaceOnUse" color-interpolation-filters="sRGB">
<feFlood flood-opacity="0" result="BackgroundImageFix"/>
<feColorMatrix in="SourceAlpha" type="matrix" values="0 0 0 0 0 0 0 0 0 0 0 0 0 0 0 0 0 0 127 0" result="hardAlpha"/>
<feOffset dy="-5.12"/>
<feGaussianBlur stdDeviation="3.2"/>
<feComposite in2="hardAlpha" operator="out"/>
<feColorMatrix type="matrix" values="0 0 0 0 1 0 0 0 0 1 0 0 0 0 1 0 0 0 0.05 0"/>
<feBlend mode="normal" in2="BackgroundImageFix" result="effect1_dropShadow_36_166"/>
<feColorMatrix in="SourceAlpha" type="matrix" values="0 0 0 0 0 0 0 0 0 0 0 0 0 0 0 0 0 0 127 0" result="hardAlpha"/>
<feOffset dy="5.12"/>
<feGaussianBlur stdDeviation="3.2"/>
<feComposite in2="hardAlpha" operator="out"/>
<feColorMatrix type="matrix" values="0 0 0 0 1 0 0 0 0 1 0 0 0 0 1 0 0 0 0.05 0"/>
<feBlend mode="normal" in2="effect1_dropShadow_36_166" result="effect2_dropShadow_36_166"/>
<feBlend mode="normal" in="SourceGraphic" in2="effect2_dropShadow_36_166" result="shape"/>
</filter>
</defs>
</svg>
